#!OML:ASF H:\BabyWalks\Project 1\Capture day 1\Session 1\baby.ASF
:FULLY-SPECIFIED
:DEGREES
363
root -14.2799 15.9761 -2.24147 105.876 -85.1024 -124.134
lowerback 13.2701 0.138227 0.786524
upperback 3.11883 0.194064 0.814004
thorax -4.15642 0.0323805 0.379201
lowerneck -6.06598 -0.32305 5.30374
upperneck 5.80607 -0.58526 -4.74538
head 2.93264 -0.343316 -2.53348
rclavicle -6.5102e-015 4.77083e-015
rhumerus 20.9388 -4.80789 -65.4458
rradius 67.5395
rwrist 20.8469
rhand 23.0532 -24.22
rfingers 7.12502
rthumb 47.3681 -46.7223
lclavicle -6.5102e-015 4.77083e-015
lhumerus 21.2273 -0.248287 61.022
lradius 73.5106
lwrist -6.15136
lhand 26.4253 33.4461
lfingers 7.12502
lthumb 50.4665 54.4204
rfemur 2.56722 -12.2159 11.4676
rtibia 54.0743
rfoot -31.9136 -9.76899
rtoes -13.0015
lfemur 1.47137 11.9937 1.58516
ltibia 53.1032
lfoot -35.8236 -8.4899
ltoes -12.6928
364
root -14.2768 15.9762 -2.23771 106.191 -85.2653 -124.423
lowerback 13.2666 0.134828 0.660934
upperback 3.11692 0.170367 0.756693
thorax -4.15683 0.0219484 0.394075
lowerneck -6.13638 -0.314628 5.24221
upperneck 5.87757 -0.575877 -4.6618
head 2.97003 -0.337515 -2.49547
rclavicle -4.47266e-016 0
rhumerus 20.9306 -4.80681 -65.5032
rradius 67.5426
rwrist 20.9163
rhand 22.9376 -24.1884
rfingers 7.12502
rthumb 47.2612 -46.7387
lclavicle -4.47266e-016 0
lhumerus 21.2579 -0.279176 61.0308
lradius 73.5013
lwrist -6.14953
lhand 26.3995 33.4403
lfingers 7.12502
lthumb 50.4429 54.4274
rfemur 2.54515 -12.2887 11.2356
rtibia 54.0872
rfoot -31.9174 -9.67906
rtoes -13.0429
lfemur 1.44069 11.9697 1.35715
ltibia 53.0789
lfoot -35.7955 -8.44297
ltoes -12.6332
365
root -14.2751 15.9761 -2.23965 106.342 -85.07 -124.601
lowerback 13.2972 0.138881 0.794348
upperback 3.12999 0.194904 0.802835
thorax -4.15943 0.0323659 0.362979
lowerneck -6.15833 -0.299768 5.27519
upperneck 5.91374 -0.558128 -4.67832
head 2.9879 -0.328621 -2.5075
rclavicle -2.13694e-015 -4.77083e-015
rhumerus 20.9429 -4.76518 -65.5399
rradius 67.5414
rwrist 20.9138
rhand 22.9058 -24.1404
rfingers 7.12502
rthumb 47.2318 -46.7038
lclavicle -2.13694e-015 -4.77083e-015
lhumerus 21.2447 -0.30533 61.0202
lradius 73.5078
lwrist -6.17778
lhand 26.3515 33.4712
lfingers 7.12502
lthumb 50.399 54.4819
rfemur 2.53325 -12.199 11.4731
rtibia 54.0772
rfoot -31.8994 -9.72692
rtoes -13.021
lfemur 1.48654 12.0543 1.615
ltibia 53.083
lfoot -35.7948 -8.53258
ltoes -12.6391
366
root -14.271 15.9761 -2.23736 106.486 -85.1639 -124.734
lowerback 13.318 0.13916 0.733563
upperback 3.13013 0.185468 0.762703
thorax -4.17077 0.0282015 0.356893
lowerneck -6.31149 -0.285255 5.18193
upperneck 6.07996 -0.539804 -4.59442
head 3.07391 -0.319626 -2.46605
rclavicle 5.46658e-016 1.98785e-015
rhumerus 20.9434 -4.76332 -65.5525
rradius 67.5457
rwrist 20.917
rhand 22.8663 -24.1151
rfingers 7.12502
rthumb 47.1953 -46.6948
lclavicle 5.46658e-016 1.98785e-015
lhumerus 21.2708 -0.358799 61.0301
lradius 73.5078
lwrist -6.18907
lhand 26.2987 33.4666
lfingers 7.12502
lthumb 50.3508 54.5032
rfemur 2.5117 -12.2315 11.3475
rtibia 54.0867
rfoot -31.8989 -9.69944
rtoes -13.1104
lfemur 1.45861 12.0427 1.48563
ltibia 53.074
lfoot -35.776 -8.51302
ltoes -12.5994
367
root -14.2696 15.9755 -2.23982 106.751 -85.0596 -125.028
lowerback 13.3456 0.143143 0.765744
upperback 3.13611 0.195831 0.78835
thorax -4.17953 0.0327108 0.363857
lowerneck -6.1798 -0.272181 5.29866
upperneck 5.98516 -0.522996 -4.67826
head 3.01859 -0.31063 -2.512
rclavicle 1.2921e-015 1.94809e-014
rhumerus 20.9207 -4.70857 -65.6063
rradius 67.5611
rwrist 20.9527
rhand 22.7993 -24.0273
rfingers 7.12502
rthumb 47.1333 -46.6346
lclavicle 1.2921e-015 1.94809e-014
lhumerus 21.2249 -0.391723 60.9956
lradius 73.5247
lwrist -6.19687
lhand 26.2632 33.4751
lfingers 7.12502
lthumb 50.3183 54.5291
rfemur 2.51589 -12.15 11.4807
rtibia 54.0843
rfoot -31.8911 -9.71068
rtoes -12.9696
lfemur 1.50002 12.1139 1.63667
ltibia 53.0829
lfoot -35.7949 -8.57001
ltoes -12.6069
368
root -14.2667 15.9756 -2.23698 106.932 -85.1727 -125.199
lowerback 13.3518 0.139998 0.691359
upperback 3.14329 0.179233 0.741197
thorax -4.17551 0.0250978 0.359285
lowerneck -6.29908 -0.264544 5.25651
upperneck 6.10864 -0.516219 -4.618
head 3.08336 -0.306772 -2.48731
rclavicle 3.27995e-015 7.95139e-016
rhumerus 20.9398 -4.68035 -65.6046
rradius 67.5673
rwrist 20.9233
rhand 22.7898 -24.0627
rfingers 7.12502
rthumb 47.1245 -46.6738
lclavicle 3.27995e-015 7.95139e-016
lhumerus 21.2535 -0.415881 61.0172
lradius 73.5285
lwrist -6.23814
lhand 26.25 33.4541
lfingers 7.12502
lthumb 50.3063 54.5145
rfemur 2.50339 -12.1877 11.3242
rtibia 54.0882
rfoot -31.8898 -9.66368
rtoes -13.0371
lfemur 1.47343 12.0921 1.47719
ltibia 53.0779
lfoot -35.7816 -8.5384
ltoes -12.6086
369
root -14.264 15.9747 -2.23627 106.995 -85.1809 -125.272
lowerback 13.3746 0.145734 0.68888
upperback 3.16577 0.185125 0.736862
thorax -4.16438 0.0275439 0.355177
lowerneck -6.46796 -0.253385 5.0723
upperneck 6.23712 -0.500473 -4.45933
head 3.15843 -0.298609 -2.40301
rclavicle -2.83268e-015 -1.98785e-015
rhumerus 20.9413 -4.67535 -65.602
rradius 67.5967
rwrist 20.8969
rhand 22.8066 -24.0234
rfingers 7.12502
rthumb 47.1401 -46.6276
lclavicle -2.83268e-015 -1.98785e-015
lhumerus 21.2877 -0.444789 61.055
lradius 73.5383
lwrist -6.22954
lhand 26.2247 33.4906
lfingers 7.12502
lthumb 50.2831 54.5634
rfemur 2.50154 -12.1751 11.314
rtibia 54.0959
rfoot -31.886 -9.68271
rtoes -13.0346
lfemur 1.46937 12.0991 1.46785
ltibia 53.0949
lfoot -35.7979 -8.56489
ltoes -12.5342
370
root -14.2622 15.973 -2.23775 106.843 -85.0388 -125.164
lowerback 13.4279 0.1474 0.803811
upperback 3.24728 0.199798 0.769369
thorax -4.10754 0.0320743 0.321867
lowerneck -6.71552 -0.225121 5.12164
upperneck 6.29438 -0.474918 -4.48433
head 3.22778 -0.287415 -2.42427
rclavicle 4.87022e-015 -7.95139e-016
rhumerus 21.0635 -4.70527 -65.6497
rradius 67.5965
rwrist 20.9212
rhand 22.846 -23.9634
rfingers 7.12502
rthumb 47.1765 -46.5515
lclavicle 4.87022e-015 -7.95139e-016
lhumerus 21.3965 -0.420472 61.0414
lradius 73.56
lwrist -6.18805
lhand 26.2071 33.4836
lfingers 7.12502
lthumb 50.267 54.565
rfemur 2.52314 -12.0938 11.4976
rtibia 54.0965
rfoot -31.8908 -9.72668
rtoes -12.9754
lfemur 1.52317 12.1372 1.66603
ltibia 53.1012
lfoot -35.815 -8.59228
ltoes -12.5975
371
root -14.2585 15.9697 -2.23649 106.922 -85.0573 -125.235
lowerback 13.3357 0.145722 0.779079
upperback 3.3154 0.189998 0.768213
thorax -3.98592 0.0268333 0.336169
lowerneck -6.88032 -0.19949 4.96549
upperneck 6.39543 -0.440465 -4.34849
head 3.29435 -0.269999 -2.35148
rclavicle 5.61567e-015 -6.75868e-015
rhumerus 21.1541 -4.67758 -65.6303
rradius 67.6073
rwrist 20.8665
rhand 22.7984 -23.988
rfingers 7.12502
rthumb 47.1325 -46.5956
lclavicle 5.61567e-015 -6.75868e-015
lhumerus 21.4825 -0.393035 61.0576
lradius 73.5515
lwrist -6.16334
lhand 26.2679 33.5143
lfingers 7.12502
lthumb 50.3226 54.566
rfemur 2.48678 -12.0767 11.4802
rtibia 54.114
rfoot -31.881 -9.726
rtoes -12.9881
lfemur 1.48238 12.1485 1.63754
ltibia 53.1319
lfoot -35.8195 -8.58801
ltoes -12.5818
